# xmcd CD database file
#
# Track frame offsets:
#	150
#	17513
#	28686
#	42799
#	64984
#	90883
#	107694
#	131200
#	149128
#	163542
#	193783
#	211595
#
# Disc length: 3064 seconds
#
# Revision: 2
# Processed by: cddbd v1.5.2PL0 Copyright (c) Steve Scherf et al.
# Submitted via: FreeDB 13.8
#
DISCID=a20bf60c
DTITLE=Dalton - Dalton var her [CD 2)
DYEAR=2010
DGENRE=Blues
TTITLE0=Selskabsmadonna
TTITLE1=Lilly fra Løkken
TTITLE2=Nattens sidste gæst
TTITLE3=Jessica
TTITLE4=Miriam
TTITLE5=Natteslinger
TTITLE6=Daltons drøm
TTITLE7=Kurfürstendam
TTITLE8=Hollywood
TTITLE9=Hvis du rejser mod nord
TTITLE10=Kun ganske lidt
TTITLE11=Én at bli' som
EXTD=RecArt Music R 60182-0
EXTT0=
EXTT1=
EXTT2=
EXTT3=
EXTT4=
EXTT5=
EXTT6=
EXTT7=
EXTT8=
EXTT9=
EXTT10=
EXTT11=
PLAYORDER=
